# xmcd
# Copyright (C) 1995-1998 Ti Kan
#
# Track frame offsets:
#       150
#       20469
#       41184
#       57532
#       79614
#       98209
#       116150
#       131993
#       149390
#       166706
#       182394
#       202438
#       221786
#
# Disc length: 3204 seconds
#
# Revision: 0
# Processed by: cddbd v1.5.2PL0 Copyright (c) Steve Scherf et al.
# Submitted via: CD-Import v1.0
#
DISCID=c70c820d
DTITLE=Kajeem - Positif
DYEAR=06
DGENRE=
TTITLE0=Tivié
TTITLE1=Sergent 2 Togo
TTITLE2=Faya Burn
TTITLE3=Crying Feat. Moonraisers
TTITLE4=Free Your Mind
TTITLE5=Bruits De Bottes
TTITLE6=Aïe Feat. Dezunam
TTITLE7=Oussabé
TTITLE8=Tant De Choses
TTITLE9=Aint's No Sunshine
TTITLE10=Death Row
TTITLE11=Nyabinghi
TTITLE12=In The Place
EXTD=
EXTT0=
EXTT1=
EXTT2=
EXTT3=
EXTT4=
EXTT5=
EXTT6=
EXTT7=
EXTT8=
EXTT9=
EXTT10=
EXTT11=
EXTT12=
PLAYORDER=
